<?xml version="1.0" standalone="no"?>
<!DOCTYPE svg PUBLIC "-//W3C//DTD SVG 20010904//EN"
 "http://www.w3.org/TR/2001/REC-SVG-20010904/DTD/svg10.dtd">
<svg version="1.0" xmlns="http://www.w3.org/2000/svg"
 width="183.000000pt" height="183.000000pt" viewBox="0 0 183.000000 183.000000"
 preserveAspectRatio="xMidYMid meet">
<metadata>
Created by potrace 1.11, written by Peter Selinger 2001-2013
</metadata>
<g transform="translate(0.000000,183.000000) scale(0.100000,-0.100000)"
fill="#000000" stroke="none">
<path d="M771 1708 c-77 -61 -148 -113 -158 -115 -10 -1 -52 -5 -93 -9 -41 -3
-88 -7 -105 -10 -16 -2 -55 -6 -85 -10 -30 -3 -56 -7 -58 -9 -1 -1 -5 -24 -7
-51 -3 -27 -7 -65 -10 -84 -5 -35 -15 -128 -19 -187 -2 -23 -29 -63 -102 -152
-148 -181 -145 -146 -23 -297 58 -71 108 -134 112 -140 8 -13 14 -50 22 -134
10 -111 25 -223 29 -228 6 -6 80 -15 211 -27 150 -14 136 -8 283 -125 75 -61
141 -110 147 -110 5 0 71 49 146 109 148 119 124 109 299 126 30 3 64 8 75 10
11 2 38 4 60 4 55 2 63 9 70 66 3 28 8 59 10 70 2 11 7 56 10 100 8 99 12 121
21 137 4 7 55 71 112 141 57 70 102 133 99 140 -4 12 -105 139 -180 229 -22
26 -40 60 -42 75 -7 77 -17 171 -21 196 -2 15 -6 50 -9 78 -2 28 -5 53 -7 54
-2 2 -34 6 -73 10 -38 4 -72 9 -75 10 -3 2 -48 6 -100 10 -109 7 -99 2 -267
137 -68 54 -126 98 -128 98 -2 0 -67 -50 -144 -112z m223 5 c39 -31 85 -68
101 -82 l30 -26 -212 0 -212 0 27 21 c15 12 61 49 102 82 41 33 79 61 84 61 5
1 41 -25 80 -56z m105 -147 c83 -7 86 -8 140 -54 71 -59 234 -222 284 -283 25
-31 39 -60 43 -89 8 -58 9 -330 2 -418 l-7 -73 -68 -77 c-81 -90 -186 -192
-266 -258 l-58 -47 -202 -1 c-302 -1 -305 -1 -368 52 -86 70 -168 152 -302
298 -34 38 -40 83 -40 294 1 207 7 266 29 293 11 11 32 37 49 57 45 53 193
199 256 252 54 46 57 47 140 54 46 3 85 7 86 8 4 4 199 -2 282 -8z m-611 -96
c-48 -44 -117 -113 -154 -153 -37 -40 -64 -67 -61 -62 3 6 8 44 12 85 3 41 9
100 13 130 l7 55 75 7 c41 4 81 9 89 10 8 2 35 4 60 6 l46 3 -87 -81z m952 64
c25 -2 54 -7 66 -9 22 -5 21 2 40 -190 3 -27 7 -56 9 -62 2 -7 3 -13 1 -13 -2
0 -69 66 -150 146 l-146 145 67 -6 c38 -3 88 -8 113 -11z m-1217 -436 c-5 -53
-4 -341 1 -366 7 -33 -5 -21 -93 87 l-79 98 85 106 c46 59 86 107 87 107 1 0
1 -15 -1 -32z m1481 -87 l74 -94 -80 -101 c-45 -56 -84 -104 -88 -109 -3 -4
-5 10 -4 30 4 51 4 320 1 361 -4 39 -5 41 97 -87z m-1254 -608 c57 -57 108
-103 112 -103 5 0 8 -4 8 -10 0 -5 -15 -8 -32 -5 -18 2 -78 9 -132 15 -55 6
-101 12 -102 13 -2 2 -6 39 -10 82 -3 44 -9 101 -13 127 -5 26 -6 50 -4 52 3
3 19 -12 36 -32 17 -20 79 -83 137 -139z m1105 165 c-2 -7 -6 -42 -10 -78 -3
-36 -8 -85 -12 -110 -3 -25 -6 -51 -6 -57 0 -7 -10 -13 -21 -14 -12 0 -29 -2
-39 -4 -15 -3 -104 -12 -190 -20 -27 -3 -27 -2 15 34 49 41 165 157 221 219
39 44 49 51 42 30z m-617 -341 c170 1 182 -1 165 -16 -15 -13 -145 -117 -178
-142 -7 -5 -50 23 -105 67 -128 101 -131 105 -94 97 16 -3 111 -6 212 -6z"/>
<path d="M870 1435 c-110 -149 -227 -371 -271 -515 -34 -109 -33 -226 2 -300
74 -158 228 -234 395 -195 105 24 184 91 233 195 37 79 36 191 -3 313 -51 156
-188 408 -289 531 l-24 29 -43 -58z m84 -350 c94 -99 104 -249 23 -357 -41
-55 -64 -110 -66 -163 -2 -27 -5 -52 -7 -54 -2 -2 -24 4 -48 13 -53 20 -91 61
-106 114 -22 80 -6 133 73 245 79 110 90 146 72 228 -7 32 -7 33 11 19 11 -8
32 -28 48 -45z m134 -411 c-5 -59 -40 -114 -88 -139 -42 -21 -43 -20 -38 33 3
34 17 68 44 110 21 34 43 71 49 82 9 19 10 18 23 -7 9 -16 13 -45 10 -79z"/>
</g>
</svg>
